<?xml version="1.0" encoding="UTF-8" standalone="no"?>
<svg
   xmlns:dc="http://purl.org/dc/elements/1.1/"
   xmlns:cc="http://creativecommons.org/ns#"
   xmlns:rdf="http://www.w3.org/1999/02/22-rdf-syntax-ns#"
   xmlns:svg="http://www.w3.org/2000/svg"
   xmlns="http://www.w3.org/2000/svg"
   xmlns:sodipodi="http://sodipodi.sourceforge.net/DTD/sodipodi-0.dtd"
   xmlns:inkscape="http://www.inkscape.org/namespaces/inkscape"
   width="208.38229mm"
   height="86.349777mm"
   viewBox="0 0 208.38229 86.349777"
   version="1.1"
   id="svg8"
   inkscape:version="1.0 (4035a4fb49, 2020-05-01)"
   sodipodi:docname="template.svg">
  <defs
     id="defs2">
    <rect
       x="1.3229167"
       y="44.601192"
       width="207.69792"
       height="54.050594"
       id="rect312" />
  </defs>
  <sodipodi:namedview
     fit-margin-bottom="0"
     fit-margin-right="0"
     fit-margin-left="0"
     fit-margin-top="0"
     id="base"
     pagecolor="#dc3545"
     bordercolor="#666666"
     borderopacity="1.0"
     inkscape:pageopacity="0"
     inkscape:pageshadow="2"
     inkscape:zoom="1.4"
     inkscape:cx="260.58607"
     inkscape:cy="217.63749"
     inkscape:document-units="mm"
     inkscape:current-layer="layer1"
     inkscape:document-rotation="0"
     showgrid="false"
     inkscape:window-width="1920"
     inkscape:window-height="991"
     inkscape:window-x="-9"
     inkscape:window-y="-9"
     inkscape:window-maximized="1" />
  <metadata
     id="metadata5">
    <rdf:RDF>
      <cc:Work
         rdf:about="">
        <dc:format>image/svg+xml</dc:format>
        <dc:type
           rdf:resource="http://purl.org/dc/dcmitype/StillImage" />
        <dc:title></dc:title>
      </cc:Work>
    </rdf:RDF>
  </metadata>
  <g
     transform="translate(-1.975456,-3.099405)"
     inkscape:label="Livello 1"
     inkscape:groupmode="layer"
     id="layer1">
    <g
       id="g279"
       transform="matrix(0.15934494,0,0,0.15934494,166.86247,74.62632)">
      <g
         id="SvgjsG1601"
         featurekey="5TMTKC-0"
         transform="matrix(1.3819578,0,0,1.3819578,-24.011516,-20.987793)"
         fill="#c8e7ed">
        <g
           display="none"
           id="g115">
          <rect
             display="inline"
             fill="#c8e7ed"
             width="100"
             height="100"
             id="rect3"
             x="0"
             y="0" />
          <rect
             x="-100"
             y="100"
             display="inline"
             fill="#c8e7ed"
             width="100"
             height="100"
             id="rect5" />
          <g
             display="inline"
             id="g17">
            <circle
               fill="#c8e7ed"
               cx="-50"
               cy="-50"
               r="50"
               id="circle7" />
            <circle
               fill="#c8e7ed"
               cx="50.333"
               cy="-50"
               r="50"
               id="circle9" />
            <circle
               fill="#c8e7ed"
               cx="150"
               cy="-50"
               r="50"
               id="circle11" />
            <circle
               fill="#c8e7ed"
               cx="-50"
               cy="50"
               r="50"
               id="circle13" />
            <circle
               fill="#c8e7ed"
               cx="50"
               cy="50"
               r="50"
               id="circle15" />
          </g>
          <g
             display="inline"
             id="g25">
            <circle
               fill="#c8e7ed"
               cx="-50"
               cy="150"
               r="50"
               id="circle19" />
            <circle
               fill="#c8e7ed"
               cx="50.333"
               cy="150"
               r="50"
               id="circle21" />
            <circle
               fill="#c8e7ed"
               cx="150"
               cy="150"
               r="50"
               id="circle23" />
          </g>
          <g
             display="inline"
             opacity="0.05"
             id="g113">
            <g
               id="g51">
              <g
                 id="g33">
                <g
                   id="g31">
                  <line
                     fill="none"
                     stroke="#c8e7ed"
                     stroke-width="0.5"
                     stroke-miterlimit="10"
                     x1="100"
                     y1="-100"
                     x2="200"
                     y2="0"
                     id="line27" />
                  <line
                     fill="none"
                     stroke="#c8e7ed"
                     stroke-width="0.5"
                     stroke-miterlimit="10"
                     x1="200"
                     y1="-100"
                     x2="100"
                     y2="0"
                     id="line29" />
                </g>
              </g>
              <g
                 id="g41">
                <g
                   id="g39">
                  <line
                     fill="none"
                     stroke="#c8e7ed"
                     stroke-width="0.5"
                     stroke-miterlimit="10"
                     x1="0"
                     y1="-100"
                     x2="100"
                     y2="0"
                     id="line35" />
                  <line
                     fill="none"
                     stroke="#c8e7ed"
                     stroke-width="0.5"
                     stroke-miterlimit="10"
                     x1="100"
                     y1="-100"
                     x2="0"
                     y2="0"
                     id="line37" />
                </g>
              </g>
              <g
                 id="g49">
                <g
                   id="g47">
                  <line
                     fill="none"
                     stroke="#c8e7ed"
                     stroke-width="0.5"
                     stroke-miterlimit="10"
                     x1="-100"
                     y1="-100"
                     x2="0"
                     y2="0"
                     id="line43" />
                  <line
                     fill="none"
                     stroke="#c8e7ed"
                     stroke-width="0.5"
                     stroke-miterlimit="10"
                     x1="0"
                     y1="-100"
                     x2="-100"
                     y2="0"
                     id="line45" />
                </g>
              </g>
            </g>
            <g
               id="g85">
              <g
                 id="g59">
                <g
                   id="g57">
                  <line
                     fill="none"
                     stroke="#c8e7ed"
                     stroke-width="0.5"
                     stroke-miterlimit="10"
                     x1="100"
                     y1="0"
                     x2="200"
                     y2="100"
                     id="line53" />
                  <line
                     fill="none"
                     stroke="#c8e7ed"
                     stroke-width="0.5"
                     stroke-miterlimit="10"
                     x1="200"
                     y1="0"
                     x2="100"
                     y2="100"
                     id="line55" />
                </g>
              </g>
              <g
                 id="g75">
                <g
                   id="g73">
                  <line
                     fill="none"
                     stroke="#c8e7ed"
                     stroke-width="0.5"
                     stroke-miterlimit="10"
                     x1="0"
                     y1="0"
                     x2="100"
                     y2="100"
                     id="line61" />
                  <line
                     fill="none"
                     stroke="#c8e7ed"
                     stroke-miterlimit="10"
                     x1="49.5"
                     y1="15"
                     x2="49.5"
                     y2="87"
                     id="line63" />
                  <line
                     fill="none"
                     stroke="#c8e7ed"
                     stroke-miterlimit="10"
                     x1="86"
                     y1="50.5"
                     x2="14"
                     y2="50.5"
                     id="line65" />
                  <line
                     fill="none"
                     stroke="#c8e7ed"
                     stroke-width="0.5"
                     stroke-miterlimit="10"
                     x1="100"
                     y1="0"
                     x2="0"
                     y2="100"
                     id="line67" />
                  <g
                     id="g71">
                    <path
                       d="M 85,15 V 86 H 14 V 15 h 71 m 0.5,-0.5 H 85 14 13.5 V 15 86 86.5 H 14 85 85.5 V 86 15 Z"
                       id="path69" />
                  </g>
                </g>
              </g>
              <g
                 id="g83">
                <g
                   id="g81">
                  <line
                     fill="none"
                     stroke="#c8e7ed"
                     stroke-width="0.5"
                     stroke-miterlimit="10"
                     x1="-100"
                     y1="0"
                     x2="0"
                     y2="100"
                     id="line77" />
                  <line
                     fill="none"
                     stroke="#c8e7ed"
                     stroke-width="0.5"
                     stroke-miterlimit="10"
                     x1="0"
                     y1="0"
                     x2="-100"
                     y2="100"
                     id="line79" />
                </g>
              </g>
            </g>
            <g
               id="g111">
              <g
                 id="g93">
                <g
                   id="g91">
                  <line
                     fill="none"
                     stroke="#c8e7ed"
                     stroke-width="0.5"
                     stroke-miterlimit="10"
                     x1="100"
                     y1="100"
                     x2="200"
                     y2="200"
                     id="line87" />
                  <line
                     fill="none"
                     stroke="#c8e7ed"
                     stroke-width="0.5"
                     stroke-miterlimit="10"
                     x1="200"
                     y1="100"
                     x2="100"
                     y2="200"
                     id="line89" />
                </g>
              </g>
              <g
                 id="g101">
                <g
                   id="g99">
                  <line
                     fill="none"
                     stroke="#c8e7ed"
                     stroke-width="0.5"
                     stroke-miterlimit="10"
                     x1="0"
                     y1="100"
                     x2="100"
                     y2="200"
                     id="line95" />
                  <line
                     fill="none"
                     stroke="#c8e7ed"
                     stroke-width="0.5"
                     stroke-miterlimit="10"
                     x1="100"
                     y1="100"
                     x2="0"
                     y2="200"
                     id="line97" />
                </g>
              </g>
              <g
                 id="g109">
                <g
                   id="g107">
                  <line
                     fill="none"
                     stroke="#c8e7ed"
                     stroke-width="0.5"
                     stroke-miterlimit="10"
                     x1="-100"
                     y1="100"
                     x2="0"
                     y2="200"
                     id="line103" />
                  <line
                     fill="none"
                     stroke="#c8e7ed"
                     stroke-width="0.5"
                     stroke-miterlimit="10"
                     x1="0"
                     y1="100"
                     x2="-100"
                     y2="200"
                     id="line105" />
                </g>
              </g>
            </g>
          </g>
        </g>
        <g
           id="g161">
          <g
             id="g119">
            <path
               d="M 57.712,70.215 H 42.03 c -0.828,0 -1.5,-0.672 -1.5,-1.5 v -1.113 c 0,-2.39 -1.513,-4.818 -3.113,-7.389 -2.127,-3.414 -4.536,-7.282 -4.536,-12.396 0,-9.296 7.563,-16.859 16.858,-16.859 9.295,0 16.859,7.563 16.859,16.859 0,4.357 -2.1,7.982 -4.13,11.489 -1.676,2.896 -3.257,5.629 -3.257,8.296 v 1.113 c 0.001,0.828 -0.671,1.5 -1.499,1.5 z m -14.191,-3 h 12.697 c 0.126,-3.315 1.841,-6.278 3.651,-9.409 1.834,-3.167 3.729,-6.438 3.729,-9.989 0,-7.642 -6.218,-13.859 -13.859,-13.859 -7.641,0 -13.858,6.218 -13.858,13.859 0,4.257 2.075,7.588 4.082,10.81 1.683,2.703 3.423,5.495 3.558,8.588 z"
               id="path117" />
          </g>
          <g
             id="g123">
            <path
               d="M 56.599,76.5 H 43.145 c -0.828,0 -1.5,-0.672 -1.5,-1.5 0,-0.828 0.672,-1.5 1.5,-1.5 h 13.454 c 0.828,0 1.5,0.672 1.5,1.5 0,0.828 -0.672,1.5 -1.5,1.5 z"
               id="path121" />
          </g>
          <g
             id="g127">
            <path
               d="m 53.961,82.5 h -8.179 c -0.828,0 -1.5,-0.672 -1.5,-1.5 0,-0.828 0.672,-1.5 1.5,-1.5 h 8.179 c 0.828,0 1.5,0.672 1.5,1.5 0,0.828 -0.672,1.5 -1.5,1.5 z"
               id="path125" />
          </g>
          <g
             id="g131">
            <path
               d="m 49.739,25.706 c -0.828,0 -1.5,-0.672 -1.5,-1.5 v -7.519 c 0,-0.828 0.672,-1.5 1.5,-1.5 0.828,0 1.5,0.672 1.5,1.5 v 7.519 c 0,0.828 -0.672,1.5 -1.5,1.5 z"
               id="path129" />
          </g>
          <g
             id="g135">
            <path
               d="m 66.755,32.301 c -0.384,0 -0.768,-0.146 -1.061,-0.439 -0.586,-0.586 -0.586,-1.535 0,-2.121 l 5.54,-5.539 c 0.586,-0.586 1.535,-0.586 2.121,0 0.586,0.586 0.586,1.535 0,2.121 l -5.54,5.539 c -0.293,0.292 -0.676,0.439 -1.06,0.439 z"
               id="path133" />
          </g>
          <g
             id="g139">
            <path
               d="m 27.448,71.871 c -0.372,0 -0.745,-0.138 -1.036,-0.415 -0.599,-0.572 -0.621,-1.521 -0.049,-2.121 l 5.54,-5.804 c 0.573,-0.598 1.521,-0.621 2.121,-0.049 0.599,0.572 0.621,1.521 0.049,2.121 l -5.54,5.804 c -0.295,0.309 -0.689,0.464 -1.085,0.464 z"
               id="path137" />
          </g>
          <g
             id="g143">
            <path
               d="m 81,49.316 h -7.255 c -0.828,0 -1.5,-0.672 -1.5,-1.5 0,-0.828 0.672,-1.5 1.5,-1.5 H 81 c 0.828,0 1.5,0.672 1.5,1.5 0,0.828 -0.672,1.5 -1.5,1.5 z"
               id="path141" />
          </g>
          <g
             id="g147">
            <path
               d="m 25.998,49.316 h -7.123 c -0.828,0 -1.5,-0.672 -1.5,-1.5 0,-0.828 0.672,-1.5 1.5,-1.5 h 7.123 c 0.828,0 1.5,0.672 1.5,1.5 0,0.828 -0.672,1.5 -1.5,1.5 z"
               id="path145" />
          </g>
          <g
             id="g151">
            <path
               d="m 32.856,32.434 c -0.384,0 -0.768,-0.146 -1.061,-0.439 l -5.276,-5.276 c -0.586,-0.586 -0.586,-1.535 0,-2.121 0.586,-0.586 1.535,-0.586 2.121,0 l 5.276,5.276 c 0.586,0.586 0.586,1.535 0,2.121 -0.292,0.292 -0.676,0.439 -1.06,0.439 z"
               id="path149" />
          </g>
          <g
             id="g155">
            <path
               d="m 72.163,71.476 c -0.384,0 -0.768,-0.146 -1.061,-0.439 l -5.276,-5.276 c -0.586,-0.586 -0.586,-1.535 0,-2.121 0.586,-0.586 1.535,-0.586 2.121,0 l 5.276,5.276 c 0.586,0.586 0.586,1.535 0,2.121 -0.292,0.292 -0.676,0.439 -1.06,0.439 z"
               id="path153" />
          </g>
          <g
             id="g159">
            <path
               d="m 43.556,55.327 c -0.384,0 -0.768,-0.146 -1.061,-0.439 -3.998,-3.999 -3.998,-10.506 0,-14.505 4.001,-3.998 10.507,-3.997 14.504,0 0.586,0.586 0.586,1.535 0,2.121 -0.586,0.586 -1.535,0.586 -2.121,0 -2.828,-2.828 -7.432,-2.828 -10.262,0 -2.828,2.829 -2.828,7.434 0,10.263 0.586,0.586 0.586,1.536 0,2.121 -0.293,0.293 -0.677,0.439 -1.06,0.439 z"
               id="path157" />
          </g>
        </g>
      </g>
      <g
         id="SvgjsG1602"
         featurekey="sloganFeature-0"
         transform="matrix(1.1749318,0,0,1.1749318,110,55.289877)"
         fill="#ffffc2">
        <path
           d="M 6.9,20 1.1,7.12 V 20 H 0 V 5 H 1.18 L 6.98,17.3 7.12,5 H 8.2 v 15 z m 7.02,0.18 c -1.2267,0 -2.1768,-0.33336 -2.85,-1 -0.6732,-0.66664 -1.01,-1.6533 -1.01,-2.96 V 5 h 1.08 v 11.16 c 0,0.32 0.04334,0.65666 0.13,1.01 0.08666,0.35334 0.23666,0.67334 0.45,0.96 0.21334,0.28666 0.49668,0.52332 0.85002,0.70998 0.35334,0.18666 0.79,0.28 1.31,0.28 0.57334,0 1.0467,-0.08334 1.42,-0.25 0.3733,-0.16666 0.67334,-0.39666 0.9,-0.69 0.22666,-0.29334 0.38666,-0.64 0.48,-1.04 0.09334,-0.4 0.14,-0.82666 0.14,-1.28 v -10.86 h 1.06 v 11.22 c 0,1.3333 -0.32334,2.3266 -0.97,2.98 -0.64666,0.6534 -1.6433,0.98 -2.99,0.98 z M 28.7,20 V 7.28 L 25.08,15.94 23.96,15.92 20.42,7.26 V 20 H 19.44 V 5 h 1.04 L 24.54,14.76 28.62,5 h 1.06 v 15 z m 2.96,0 V 5 h 7.36 V 6.16 H 32.7 v 5.7 h 6.26 v 0.92 H 32.7 v 6.06 h 6.46 V 20 Z M 47.6,20 44.3,13.78 H 41.24 V 20 H 40.26 V 5 h 3.4 c 0.78666,0 1.46,0.11666 2.02,0.35 0.56,0.23334 1.02,0.55 1.38,0.95 0.36,0.4 0.62666,0.86334 0.8,1.39 0.17334,0.52666 0.26,1.0767 0.26,1.65 0,0.97334 -0.25,1.85 -0.75,2.63 -0.5,0.78 -1.1567,1.35 -1.97,1.71 L 48.92,20 Z M 43.52,5.92 41.24,5.9199805 V 12.75998 h 2.42 c 0.68,0 1.24,-0.10334 1.68,-0.31 0.44,-0.20666 0.78334,-0.47332 1.03,-0.79998 0.24666,-0.32666 0.42,-0.7 0.52,-1.12 0.1,-0.42 0.15,-0.8499995 0.15,-1.2899995 0,-0.46666 -0.08,-0.9 -0.24,-1.3 -0.16,-0.4 -0.39,-0.75 -0.69,-1.05 -0.3,-0.3 -0.66666,-0.53666 -1.1,-0.71 -0.43334,-0.17334 -0.93,-0.26 -1.49,-0.2600005 z m 9.86,14.26 c -2.52,0 -3.78,-1.32 -3.78,-3.96 v -7.4 c 0,-1.3333 0.31666,-2.3266 0.95,-2.98 0.63334,-0.6534 1.6567,-0.98 3.07,-0.98 1.2933,0 2.25,0.33 2.87,0.99 0.62,0.66 0.93,1.6367 0.93,2.93 v 7.44 c 0,0.66666 -0.07,1.2467 -0.21,1.74 -0.14,0.4933 -0.37,0.90668 -0.69,1.24 -0.32,0.33332 -0.73666,0.58 -1.25,0.74 -0.51334,0.16 -1.1433,0.24 -1.89,0.24 z M 56.36,8.76 C 56.36,8.42666 56.31336,8.08662 56.22002,7.74 56.12668,7.39338 55.97334,7.07668 55.76,6.79002 c -0.21334,-0.28666 -0.49668,-0.52 -0.85002,-0.7 -0.35334,-0.18 -0.79,-0.27 -1.31,-0.27 -0.57334,0 -1.05,0.08 -1.43,0.24 -0.38,0.16 -0.68,0.38334 -0.9,0.67 -0.22,0.28666 -0.37666,0.62332 -0.47,1.01 -0.09334,0.38668 -0.14,0.80666 -0.14,1.26 v 7.1 c 0,0.34666 0.04,0.7 0.12,1.06 0.08,0.36 0.22334,0.69 0.43,0.99 0.20666,0.3 0.48666,0.54666 0.84,0.74 0.35334,0.19334 0.79668,0.29 1.33,0.29 0.57334,0 1.05,-0.07666 1.43,-0.23 0.38,-0.15334 0.68334,-0.36334 0.91,-0.63 0.22666,-0.26666 0.39,-0.58332 0.49,-0.94998 0.1,-0.36666 0.15,-0.76332 0.15,-1.19 v -7.42 z m 6.44,11.42 c -0.65334,0 -1.2335,-0.08674 -1.7401,-0.26008 -0.5066,-0.173342 -0.93332,-0.45 -1.28,-0.83 -0.34668,-0.38 -0.60332,-0.87666 -0.76998,-1.49 -0.16666,-0.61334 -0.23666,-1.3533 -0.21,-2.22 h 1.2 c 0,0.42666 0.02,0.87 0.06,1.33 0.04,0.46 0.14666,0.88 0.32,1.26 0.17334,0.38 0.43668,0.69 0.79002,0.93 0.35334,0.24 0.84334,0.36 1.47,0.36 0.53334,0 0.98668,-0.08 1.36,-0.24 0.37332,-0.16 0.67668,-0.37334 0.91002,-0.64 0.23334,-0.26666 0.39668,-0.58 0.49002,-0.94 0.09334,-0.36 0.14,-0.73334 0.14,-1.12 0,-0.45334 -0.08334,-0.85 -0.25,-1.19 -0.16666,-0.34 -0.38666,-0.64334 -0.66,-0.91 -0.27334,-0.26666 -0.59334,-0.50332 -0.96,-0.70998 -0.36666,-0.20666 -0.75,-0.39 -1.15,-0.55 -0.64,-0.25334 -1.2,-0.50334 -1.68,-0.75 -0.48,-0.24666 -0.87334,-0.52332 -1.18,-0.82998 -0.30666,-0.30666 -0.53666,-0.66332 -0.69,-1.07 -0.15334,-0.40668 -0.23,-0.90332 -0.23,-1.49 0,-1.3333 0.35,-2.3266 1.05,-2.98 0.7,-0.6534 1.7033,-0.98 3.01,-0.98 1.1333,0 2.03,0.33 2.69,0.99 0.66,0.66 0.99,1.65 0.99,2.97 v 1.1 h -1.12 v -1.2 c 0,-0.41334 -0.05,-0.79668 -0.15,-1.15 -0.1,-0.35332 -0.25666,-0.66334 -0.47,-0.93 -0.21334,-0.26666 -0.48334,-0.47666 -0.81,-0.63 -0.32666,-0.15334 -0.71666,-0.23 -1.17,-0.23 -1.0667,0 -1.83,0.28 -2.29,0.84 -0.46,0.56 -0.67,1.3133 -0.63,2.26 0.01334,0.41334 0.09,0.76668 0.23,1.06 0.14,0.29332 0.32666,0.55 0.56,0.77 0.23334,0.22 0.51334,0.41666 0.84,0.59 0.32666,0.17334 0.69,0.34668 1.09,0.52002 0.46666,0.2 0.93,0.41334 1.39,0.64 0.46,0.22666 0.89,0.50666 1.29,0.84 0.4,0.34666 0.73,0.75 0.99,1.21 0.26,0.46 0.39,1.03 0.39,1.71 0,1.32 -0.33666,2.31 -1.01,2.97 -0.67334,0.66 -1.61,0.99 -2.81,0.99 z M 75.3,20 74.2,15.58 H 69.32 L 68.22,20 h -1 L 71.36,5 h 0.86 l 4.12,15 z M 71.82,5.94 69.56,14.62 h 4.38 z M 86.56,20 V 7.28 L 82.94,15.94 81.82,15.92 78.28,7.26 V 20 H 77.3 V 5 h 1.04 L 82.4,14.76 86.48,5 h 1.06 v 15 z m 2.96,0 V 5 h 7.36 v 1.16 h -6.32 v 5.7 h 6.26 v 0.92 h -6.26 v 6.06 h 6.46 V 20 Z m 15.6,0 -5.8,-12.88 V 20 h -1.1 V 5 h 1.18 l 5.8,12.3 0.14,-12.3 h 1.08 V 20 Z M 112.1,6.1 V 20 h -1.16 V 6.1 h -3.26 V 5 h 7.68 V 6.1 Z M 116.46,20 V 5 h 7.36 v 1.16 h -6.32 v 5.7 h 6.26 v 0.92 h -6.26 v 6.06 h 6.46 V 20 Z m 8.9,0 v -1.54 h 1.58 V 20 Z m 2.92,0 V 5 h 1.28 V 20 Z M 135.44,6.1 V 20 h -1.16 V 6.1 h -3.26 V 5 h 7.68 v 1.1 z"
           id="path164" />
      </g>
      <g
         id="SvgjsG1603"
         featurekey="nameLeftFeature-0"
         transform="matrix(2.5714286,0,0,2.5714286,113.58286,0.85714286)"
         fill="#ffffc2">
        <path
           d="M 0.94,19.5 5.6,5.5 H 6.64 L 3.6,14.76 h 3.44 l 0.36,1 H 3.26 L 2,19.5 Z m 9.82,0 L 7.16,8.7 5.3,14.26 H 4.24 L 7.2,5.5 l 4.6,14 z M 9.14,19.5 8.4,17.26 H 4.64 l -0.7,-1 H 8.1 L 6.64,11.8 7.16,10.26 10.24,19.5 Z m -5.58,0 H 2.5 l 1.06,-3 0.64,1 z m 20.18,-13 h -5 v 13 h -1 v -13 h -3.5 v -1 h 9.5 z M 17.24,8 h -3 V 7 h 3 z m 6.5,0 H 20.58 L 19.6,7 h 4.14 z m -3.5,11.5 h -1 V 7.36 l 1,1.04 z"
           id="path167" />
      </g>
      <g
         id="SvgjsG1604"
         featurekey="nameRightFeature-0"
         transform="matrix(2.3195876,0,0,2.3195876,182.36082,4.0051555)"
         fill="#ffffc2">
        <path
           d="m 5.5,14.5 v 2 h 5 V 20 H 2 V 5 h 8.5 v 3.5 h -5 V 11 h 4 v 3.5 z m -3,-9 V 18 H 10 V 17 H 3.5 V 12.5 H 9 v -1 H 3.5 v -5 H 10 v -1 z M 10,7 H 4.34 L 5.4,8 H 10 Z M 4,11 H 5 V 8.34 L 4,7.36 Z m 5,2 H 4.34 L 5.4,14 H 9 Z M 4,16.5 H 5 V 14.34 L 4,13.36 Z m 6,2 H 2.5 v 1 H 10 Z m 10,-8.24 c 0,-1.2 -0.6,-2 -1.5,-2 -0.9,0 -1.5,0.8 -1.5,2 v 4.5 c 0,1.2 0.6,1.98 1.5,1.98 0.9,0 1.5,-0.78 1.5,-1.98 v -0.5 h 3.5 v 0.5 c 0,3.3 -2,5.5 -5,5.5 -3,0 -5,-2.2 -5,-5.5 v -4.5 c 0,-3.3 2,-5.52 5,-5.52 3,0 5,2.22 5,5.52 v 0.48 H 20 Z m -6,4.5 c 0,3 1.8,4.98 4.5,4.98 1.26,0 2.3,-0.44 3.1,-1.2 L 20.84,17.8 c -0.6,0.6 -1.38,0.96 -2.34,0.96 -2.1,0 -3.5,-1.6 -3.5,-4 v -4.5 c 0,-2.4 1.4,-4.02 3.5,-4.02 2.1,0 3.5,1.62 3.5,4.02 h 1 c 0,-3 -1.8,-5 -4.5,-5 -2.7,0 -4.5,2 -4.5,5 z m 4.5,-7.02 c 1.2,0 2,1.02 2,2.52 h 1 c 0,-2.1 -1.2,-3.5 -3,-3.5 -0.8,0 -1.44,0.24 -2,0.74 l 0.74,0.7 C 17.6,7.9 18,7.74 18.5,7.74 Z m 0,9.52 c -1.2,0 -2,-1 -2,-2.5 v -4.5 c 0,-0.66 0.14,-1.2 0.4,-1.66 L 16.2,7.9 c -0.46,0.6 -0.7,1.4 -0.7,2.36 v 4.5 c 0,2.1 1.2,3.48 3,3.48 1.8,0 3,-1.38 3,-3.48 h -1 c 0,1.5 -0.8,2.5 -2,2.5 z m 3.5,-2.5 c 0,1.08 -0.3,1.98 -0.8,2.7 l 0.74,0.7 C 22.6,17.3 23,16.14 23,14.76 Z M 31.5,4.74 c 3,0 5,2.22 5,5.52 v 4.5 c 0,3.3 -2,5.5 -5,5.5 -3,0 -5,-2.2 -5,-5.5 v -4.5 c 0,-3.3 2,-5.52 5,-5.52 z m 4.5,5.52 c 0,-3 -1.8,-5 -4.5,-5 -2.7,0 -4.5,2 -4.5,5 v 4.5 c 0,3 1.8,4.98 4.5,4.98 1.2,0 2.24,-0.38 3,-1.14 l -0.7,-0.7 c -0.6,0.56 -1.4,0.86 -2.3,0.86 -2.1,0 -3.5,-1.6 -3.5,-4 v -4.5 c 0,-2.4 1.4,-4.02 3.5,-4.02 2.1,0 3.5,1.62 3.5,4.02 v 4.5 c 0,1.14 -0.3,2.1 -0.86,2.8 l 0.76,0.68 c 0.7,-0.9 1.1,-2.1 1.1,-3.48 z m -6.9,-2.3 c -0.4,0.6 -0.6,1.4 -0.6,2.3 v 4.5 c 0,2.1 1.2,3.48 3,3.48 1.8,0 3,-1.38 3,-3.48 v -4.5 c 0,-2.1 -1.2,-3.5 -3,-3.5 -0.84,0 -1.56,0.3 -2.04,0.84 l 0.74,0.7 c 0.3,-0.34 0.76,-0.56 1.3,-0.56 1.2,0 2,1.02 2,2.52 v 4.5 c 0,1.5 -0.8,2.5 -2,2.5 -1.2,0 -2,-1 -2,-2.5 v -4.5 c 0,-0.6 0.14,-1.16 0.34,-1.56 z m 0.9,6.8 c 0,1.2 0.6,1.98 1.5,1.98 0.9,0 1.5,-0.78 1.5,-1.98 v -4.5 c 0,-1.2 -0.6,-2 -1.5,-2 -0.9,0 -1.5,0.8 -1.5,2 z"
           id="path170" />
      </g>
    </g>
    <path
       id="path291"
       d="m 5.391891,3.099405 c -0.9352814,0 -1.6877292,0.7693732 -1.6877292,1.7256977 V 33.586731 c 0,0.956325 0.7524478,1.725697 1.6877292,1.725697 H 6.51705 c 0.9352861,0 1.6877292,-0.769372 1.6877292,-1.725697 V 4.8251027 C 8.2047792,3.8687782 7.4523361,3.099405 6.51705,3.099405 Z m 6.188351,0 c -0.618837,0 -1.125154,0.5177093 -1.125154,1.1504649 V 34.161964 c 0,0.632755 0.506317,1.150464 1.125154,1.150464 0.618835,0 1.125156,-0.517709 1.125156,-1.150464 V 4.2498699 c 0,-0.6327556 -0.506321,-1.1504649 -1.125156,-1.1504649 z m 5.063194,0 c -0.935286,0 -1.687729,0.7693732 -1.687729,1.7256977 V 33.586731 c 0,0.956325 0.752443,1.725697 1.687729,1.725697 h 1.125154 c 0.935285,0 1.687732,-0.769372 1.687732,-1.725697 V 4.8251027 c 0,-0.9563245 -0.752447,-1.7256977 -1.687732,-1.7256977 z m 6.750926,0 c -0.935285,0 -1.687732,0.7693732 -1.687732,1.7256977 V 33.586731 c 0,0.956325 0.752447,1.725697 1.687732,1.725697 h 1.125154 c 0.935284,0 1.687731,-0.769372 1.687731,-1.725697 V 4.8251027 c 0,-0.9563245 -0.752447,-1.7256977 -1.687731,-1.7256977 z M 35.20848,4.8251027 V 33.586731 c 0,0.956325 0.752447,1.725697 1.687731,1.725697 h 1.125156 c 0.935283,0 1.687732,-0.769372 1.687732,-1.725697 V 4.8251027 c 0,-0.9563245 -0.752449,-1.7256977 -1.687732,-1.7256977 h -1.125156 c -0.935284,0 -1.687731,0.7693732 -1.687731,1.7256977 z M 30.707864,4.2498699 V 34.161964 c 0,0.632755 0.506319,1.150464 1.125153,1.150464 0.618836,0 1.125157,-0.517709 1.125157,-1.150464 V 4.2498699 c 0,-0.6327556 -0.506321,-1.1504649 -1.125157,-1.1504649 -0.618834,0 -1.125153,0.5177093 -1.125153,1.1504649 z"
       style="fill:#ffffff;stroke-width:0.0711084" />
    <text
       xml:space="preserve"
       style="font-style:normal;font-weight:normal;font-size:18.6365px;line-height:1.25;font-family:sans-serif;fill:#ffffff;fill-opacity:1;stroke:none;stroke-width:0.465913"
       x="53.299294"
       y="34.136185"
       id="text304"><tspan
         sodipodi:role="line"
         id="tspan302"
         x="53.299294"
         y="34.136185"
         style="fill:#ffffff;stroke-width:0.465913">#COD#</tspan></text>
    <text
       xml:space="preserve"
       style="font-style:normal;font-weight:normal;font-size:10.5833px;line-height:1.25;font-family:sans-serif;fill:#ffffff;fill-opacity:1;stroke:none;stroke-width:0.264583"
       x="53.483631"
       y="12.662202"
       id="text308"><tspan
         sodipodi:role="line"
         id="tspan306"
         x="53.483631"
         y="12.662202"
         style="fill:#ffffff;stroke-width:0.264583">CODICE ATECO</tspan></text>
    <text
       xml:space="preserve"
       id="text310"
       style="font-style:normal;font-weight:normal;font-size:8.46667px;line-height:1.25;font-family:sans-serif;text-align:justify;white-space:pre;shape-inside:url(#rect312);fill:#ffffff;fill-opacity:1;stroke:none;"
       x="0"
       y="0"><tspan
         x="1.3222656"
         y="52.092581"><tspan
           style="font-size:8.46667px;text-align:justify;text-anchor:start;fill:#ffffff">#DESC#</tspan></tspan></text>
  </g>
</svg>
