<?xml version="1.0" encoding="UTF-8" standalone="no"?>
<svg
   xmlns:dc="http://purl.org/dc/elements/1.1/"
   xmlns:cc="http://creativecommons.org/ns#"
   xmlns:rdf="http://www.w3.org/1999/02/22-rdf-syntax-ns#"
   xmlns:svg="http://www.w3.org/2000/svg"
   xmlns="http://www.w3.org/2000/svg"
   xmlns:sodipodi="http://sodipodi.sourceforge.net/DTD/sodipodi-0.dtd"
   xmlns:inkscape="http://www.inkscape.org/namespaces/inkscape"
   inkscape:version="1.0 (4035a4fb49, 2020-05-01)"
   sodipodi:docname="logoAteco.svg"
   id="svg173"
   version="1.1"
   class="css-1j8o68f"
   viewBox="0 0 272.9630302115415 93.0237285006298"
   height="93.0237285006298"
   width="272.9630302115415">
  <metadata
     id="metadata177">
    <rdf:RDF>
      <cc:Work
         rdf:about="">
        <dc:format>image/svg+xml</dc:format>
        <dc:type
           rdf:resource="http://purl.org/dc/dcmitype/StillImage" />
        <dc:title></dc:title>
      </cc:Work>
    </rdf:RDF>
  </metadata>
  <sodipodi:namedview
     inkscape:current-layer="svg173"
     inkscape:window-maximized="1"
     inkscape:window-y="-9"
     inkscape:window-x="-9"
     inkscape:cy="46.511864"
     inkscape:cx="136.48152"
     inkscape:zoom="5.5611924"
     showgrid="false"
     id="namedview175"
     inkscape:window-height="1011"
     inkscape:window-width="1920"
     inkscape:pageshadow="2"
     inkscape:pageopacity="0"
     guidetolerance="10"
     gridtolerance="10"
     objecttolerance="10"
     borderopacity="1"
     bordercolor="#666666"
     pagecolor="#ffffff" />
  <defs
     id="SvgjsDefs1600" />
  <g
     fill="#c8e7ed"
     transform="matrix(1.381957773512476,0,0,1.381957773512476,-24.01151631477927,-20.987793085900012)"
     featurekey="5TMTKC-0"
     id="SvgjsG1601">
    <g
       id="g115"
       display="none">
      <rect
         id="rect3"
         height="100"
         width="100"
         fill="#c8e7ed"
         display="inline" />
      <rect
         id="rect5"
         height="100"
         width="100"
         fill="#c8e7ed"
         display="inline"
         y="100"
         x="-100" />
      <g
         id="g17"
         display="inline">
        <circle
           id="circle7"
           r="50"
           cy="-50"
           cx="-50"
           fill="#c8e7ed" />
        <circle
           id="circle9"
           r="50"
           cy="-50"
           cx="50.333"
           fill="#c8e7ed" />
        <circle
           id="circle11"
           r="50"
           cy="-50"
           cx="150"
           fill="#c8e7ed" />
        <circle
           id="circle13"
           r="50"
           cy="50"
           cx="-50"
           fill="#c8e7ed" />
        <circle
           id="circle15"
           r="50"
           cy="50"
           cx="50"
           fill="#c8e7ed" />
      </g>
      <g
         id="g25"
         display="inline">
        <circle
           id="circle19"
           r="50"
           cy="150"
           cx="-50"
           fill="#c8e7ed" />
        <circle
           id="circle21"
           r="50"
           cy="150"
           cx="50.333"
           fill="#c8e7ed" />
        <circle
           id="circle23"
           r="50"
           cy="150"
           cx="150"
           fill="#c8e7ed" />
      </g>
      <g
         id="g113"
         opacity="0.05"
         display="inline">
        <g
           id="g51">
          <g
             id="g33">
            <g
               id="g31">
              <line
                 id="line27"
                 y2="0"
                 x2="200"
                 y1="-100"
                 x1="100"
                 stroke-miterlimit="10"
                 stroke-width="0.5"
                 stroke="#c8e7ed"
                 fill="none" />
              <line
                 id="line29"
                 y2="0"
                 x2="100"
                 y1="-100"
                 x1="200"
                 stroke-miterlimit="10"
                 stroke-width="0.5"
                 stroke="#c8e7ed"
                 fill="none" />
            </g>
          </g>
          <g
             id="g41">
            <g
               id="g39">
              <line
                 id="line35"
                 y2="0"
                 x2="100"
                 y1="-100"
                 x1="0"
                 stroke-miterlimit="10"
                 stroke-width="0.5"
                 stroke="#c8e7ed"
                 fill="none" />
              <line
                 id="line37"
                 y2="0"
                 x2="0"
                 y1="-100"
                 x1="100"
                 stroke-miterlimit="10"
                 stroke-width="0.5"
                 stroke="#c8e7ed"
                 fill="none" />
            </g>
          </g>
          <g
             id="g49">
            <g
               id="g47">
              <line
                 id="line43"
                 y2="0"
                 x2="0"
                 y1="-100"
                 x1="-100"
                 stroke-miterlimit="10"
                 stroke-width="0.5"
                 stroke="#c8e7ed"
                 fill="none" />
              <line
                 id="line45"
                 y2="0"
                 x2="-100"
                 y1="-100"
                 x1="0"
                 stroke-miterlimit="10"
                 stroke-width="0.5"
                 stroke="#c8e7ed"
                 fill="none" />
            </g>
          </g>
        </g>
        <g
           id="g85">
          <g
             id="g59">
            <g
               id="g57">
              <line
                 id="line53"
                 y2="100"
                 x2="200"
                 y1="0"
                 x1="100"
                 stroke-miterlimit="10"
                 stroke-width="0.5"
                 stroke="#c8e7ed"
                 fill="none" />
              <line
                 id="line55"
                 y2="100"
                 x2="100"
                 y1="0"
                 x1="200"
                 stroke-miterlimit="10"
                 stroke-width="0.5"
                 stroke="#c8e7ed"
                 fill="none" />
            </g>
          </g>
          <g
             id="g75">
            <g
               id="g73">
              <line
                 id="line61"
                 y2="100"
                 x2="100"
                 y1="0"
                 x1="0"
                 stroke-miterlimit="10"
                 stroke-width="0.5"
                 stroke="#c8e7ed"
                 fill="none" />
              <line
                 id="line63"
                 y2="87"
                 x2="49.5"
                 y1="15"
                 x1="49.5"
                 stroke-miterlimit="10"
                 stroke="#c8e7ed"
                 fill="none" />
              <line
                 id="line65"
                 y2="50.5"
                 x2="14"
                 y1="50.5"
                 x1="86"
                 stroke-miterlimit="10"
                 stroke="#c8e7ed"
                 fill="none" />
              <line
                 id="line67"
                 y2="100"
                 x2="0"
                 y1="0"
                 x1="100"
                 stroke-miterlimit="10"
                 stroke-width="0.5"
                 stroke="#c8e7ed"
                 fill="none" />
              <g
                 id="g71">
                <path
                   id="path69"
                   d="M85,15v71H14V15H85 M85.5,14.5H85H14h-0.5V15v71v0.5H14h71h0.5V86V15V14.5L85.5,14.5z" />
              </g>
            </g>
          </g>
          <g
             id="g83">
            <g
               id="g81">
              <line
                 id="line77"
                 y2="100"
                 x2="0"
                 y1="0"
                 x1="-100"
                 stroke-miterlimit="10"
                 stroke-width="0.5"
                 stroke="#c8e7ed"
                 fill="none" />
              <line
                 id="line79"
                 y2="100"
                 x2="-100"
                 y1="0"
                 x1="0"
                 stroke-miterlimit="10"
                 stroke-width="0.5"
                 stroke="#c8e7ed"
                 fill="none" />
            </g>
          </g>
        </g>
        <g
           id="g111">
          <g
             id="g93">
            <g
               id="g91">
              <line
                 id="line87"
                 y2="200"
                 x2="200"
                 y1="100"
                 x1="100"
                 stroke-miterlimit="10"
                 stroke-width="0.5"
                 stroke="#c8e7ed"
                 fill="none" />
              <line
                 id="line89"
                 y2="200"
                 x2="100"
                 y1="100"
                 x1="200"
                 stroke-miterlimit="10"
                 stroke-width="0.5"
                 stroke="#c8e7ed"
                 fill="none" />
            </g>
          </g>
          <g
             id="g101">
            <g
               id="g99">
              <line
                 id="line95"
                 y2="200"
                 x2="100"
                 y1="100"
                 x1="0"
                 stroke-miterlimit="10"
                 stroke-width="0.5"
                 stroke="#c8e7ed"
                 fill="none" />
              <line
                 id="line97"
                 y2="200"
                 x2="0"
                 y1="100"
                 x1="100"
                 stroke-miterlimit="10"
                 stroke-width="0.5"
                 stroke="#c8e7ed"
                 fill="none" />
            </g>
          </g>
          <g
             id="g109">
            <g
               id="g107">
              <line
                 id="line103"
                 y2="200"
                 x2="0"
                 y1="100"
                 x1="-100"
                 stroke-miterlimit="10"
                 stroke-width="0.5"
                 stroke="#c8e7ed"
                 fill="none" />
              <line
                 id="line105"
                 y2="200"
                 x2="-100"
                 y1="100"
                 x1="0"
                 stroke-miterlimit="10"
                 stroke-width="0.5"
                 stroke="#c8e7ed"
                 fill="none" />
            </g>
          </g>
        </g>
      </g>
    </g>
    <g
       id="g161">
      <g
         id="g119">
        <path
           id="path117"
           d="M57.712,70.215H42.03c-0.828,0-1.5-0.672-1.5-1.5v-1.113c0-2.39-1.513-4.818-3.113-7.389    c-2.127-3.414-4.536-7.282-4.536-12.396c0-9.296,7.563-16.859,16.858-16.859s16.859,7.563,16.859,16.859    c0,4.357-2.1,7.982-4.13,11.489c-1.676,2.896-3.257,5.629-3.257,8.296v1.113C59.212,69.543,58.54,70.215,57.712,70.215z     M43.521,67.215h12.697c0.126-3.315,1.841-6.278,3.651-9.409c1.834-3.167,3.729-6.438,3.729-9.989    c0-7.642-6.218-13.859-13.859-13.859s-13.858,6.218-13.858,13.859c0,4.257,2.075,7.588,4.082,10.81    C41.646,61.33,43.386,64.122,43.521,67.215z" />
      </g>
      <g
         id="g123">
        <path
           id="path121"
           d="M56.599,76.5H43.145c-0.828,0-1.5-0.672-1.5-1.5s0.672-1.5,1.5-1.5h13.454c0.828,0,1.5,0.672,1.5,1.5    S57.427,76.5,56.599,76.5z" />
      </g>
      <g
         id="g127">
        <path
           id="path125"
           d="M53.961,82.5h-8.179c-0.828,0-1.5-0.672-1.5-1.5s0.672-1.5,1.5-1.5h8.179c0.828,0,1.5,0.672,1.5,1.5    S54.789,82.5,53.961,82.5z" />
      </g>
      <g
         id="g131">
        <path
           id="path129"
           d="M49.739,25.706c-0.828,0-1.5-0.672-1.5-1.5v-7.519c0-0.828,0.672-1.5,1.5-1.5s1.5,0.672,1.5,1.5v7.519    C51.239,25.034,50.567,25.706,49.739,25.706z" />
      </g>
      <g
         id="g135">
        <path
           id="path133"
           d="M66.755,32.301c-0.384,0-0.768-0.146-1.061-0.439c-0.586-0.586-0.586-1.535,0-2.121l5.54-5.539    c0.586-0.586,1.535-0.586,2.121,0s0.586,1.535,0,2.121l-5.54,5.539C67.522,32.154,67.139,32.301,66.755,32.301z" />
      </g>
      <g
         id="g139">
        <path
           id="path137"
           d="M27.448,71.871c-0.372,0-0.745-0.138-1.036-0.415c-0.599-0.572-0.621-1.521-0.049-2.121l5.54-5.804    c0.573-0.598,1.521-0.621,2.121-0.049c0.599,0.572,0.621,1.521,0.049,2.121l-5.54,5.804    C28.238,71.716,27.844,71.871,27.448,71.871z" />
      </g>
      <g
         id="g143">
        <path
           id="path141"
           d="M81,49.316h-7.255c-0.828,0-1.5-0.672-1.5-1.5s0.672-1.5,1.5-1.5H81c0.828,0,1.5,0.672,1.5,1.5S81.828,49.316,81,49.316z" />
      </g>
      <g
         id="g147">
        <path
           id="path145"
           d="M25.998,49.316h-7.123c-0.828,0-1.5-0.672-1.5-1.5s0.672-1.5,1.5-1.5h7.123c0.828,0,1.5,0.672,1.5,1.5    S26.826,49.316,25.998,49.316z" />
      </g>
      <g
         id="g151">
        <path
           id="path149"
           d="M32.856,32.434c-0.384,0-0.768-0.146-1.061-0.439l-5.276-5.276c-0.586-0.586-0.586-1.535,0-2.121s1.535-0.586,2.121,0    l5.276,5.276c0.586,0.586,0.586,1.535,0,2.121C33.624,32.287,33.24,32.434,32.856,32.434z" />
      </g>
      <g
         id="g155">
        <path
           id="path153"
           d="M72.163,71.476c-0.384,0-0.768-0.146-1.061-0.439l-5.276-5.276c-0.586-0.586-0.586-1.535,0-2.121s1.535-0.586,2.121,0    l5.276,5.276c0.586,0.586,0.586,1.535,0,2.121C72.931,71.329,72.547,71.476,72.163,71.476z" />
      </g>
      <g
         id="g159">
        <path
           id="path157"
           d="M43.556,55.327c-0.384,0-0.768-0.146-1.061-0.439c-3.998-3.999-3.998-10.506,0-14.505c4.001-3.998,10.507-3.997,14.504,0    c0.586,0.586,0.586,1.535,0,2.121s-1.535,0.586-2.121,0c-2.828-2.828-7.432-2.828-10.262,0c-2.828,2.829-2.828,7.434,0,10.263    c0.586,0.586,0.586,1.536,0,2.121C44.323,55.181,43.939,55.327,43.556,55.327z" />
      </g>
    </g>
  </g>
  <g
     fill="#ffffc2"
     transform="matrix(1.1749317505201775,0,0,1.1749317505201775,110.00000014006278,55.2898769159421)"
     featurekey="sloganFeature-0"
     id="SvgjsG1602">
    <path
       id="path164"
       d="M6.9 20 l-5.8 -12.88 l0 12.88 l-1.1 0 l0 -15 l1.18 0 l5.8 12.3 l0.14 -12.3 l1.08 0 l0 15 l-1.3 0 z M13.92 20.18 c-1.2267 0 -2.1768 -0.33336 -2.85 -1 s-1.01 -1.6533 -1.01 -2.96 l0 -11.22 l1.08 0 l0 11.16 c0 0.32 0.04334 0.65666 0.13 1.01 s0.23666 0.67334 0.45 0.96 s0.49668 0.52332 0.85002 0.70998 s0.79 0.28 1.31 0.28 c0.57334 0 1.0467 -0.08334 1.42 -0.25 s0.67334 -0.39666 0.9 -0.69 s0.38666 -0.64 0.48 -1.04 s0.14 -0.82666 0.14 -1.28 l0 -10.86 l1.06 0 l0 11.22 c0 1.3333 -0.32334 2.3266 -0.97 2.98 s-1.6433 0.98 -2.99 0.98 z M28.700000000000003 20 l0 -12.72 l-3.62 8.66 l-1.12 -0.02 l-3.54 -8.66 l0 12.74 l-0.98 0 l0 -15 l1.04 0 l4.06 9.76 l4.08 -9.76 l1.06 0 l0 15 l-0.98 0 z M31.660000000000004 20 l0 -15 l7.36 0 l0 1.16 l-6.32 0 l0 5.7 l6.26 0 l0 0.92 l-6.26 0 l0 6.06 l6.46 0 l0 1.16 l-7.5 0 z M47.60000000000001 20 l-3.3 -6.22 l-3.06 0 l0 6.22 l-0.98 0 l0 -15 l3.4 0 c0.78666 0 1.46 0.11666 2.02 0.35 s1.02 0.55 1.38 0.95 s0.62666 0.86334 0.8 1.39 s0.26 1.0767 0.26 1.65 c0 0.97334 -0.25 1.85 -0.75 2.63 s-1.1567 1.35 -1.97 1.71 l3.52 6.32 l-1.32 0 z M43.52 5.92 l-2.28 -0.000019531 l0 6.84 l2.42 0 c0.68 0 1.24 -0.10334 1.68 -0.31 s0.78334 -0.47332 1.03 -0.79998 s0.42 -0.7 0.52 -1.12 s0.15 -0.85 0.15 -1.29 c0 -0.46666 -0.08 -0.9 -0.24 -1.3 s-0.39 -0.75 -0.69 -1.05 s-0.66666 -0.53666 -1.1 -0.71 s-0.93 -0.26 -1.49 -0.26 z M53.38000000000001 20.18 c-2.52 0 -3.78 -1.32 -3.78 -3.96 l0 -7.4 c0 -1.3333 0.31666 -2.3266 0.95 -2.98 s1.6567 -0.98 3.07 -0.98 c1.2933 0 2.25 0.33 2.87 0.99 s0.93 1.6367 0.93 2.93 l0 7.44 c0 0.66666 -0.07 1.2467 -0.21 1.74 s-0.37 0.90668 -0.69 1.24 s-0.73666 0.58 -1.25 0.74 s-1.1433 0.24 -1.89 0.24 z M56.36000000000001 8.76 c0 -0.33334 -0.04664 -0.67338 -0.13998 -1.02 s-0.24668 -0.66332 -0.46002 -0.94998 s-0.49668 -0.52 -0.85002 -0.7 s-0.79 -0.27 -1.31 -0.27 c-0.57334 0 -1.05 0.08 -1.43 0.24 s-0.68 0.38334 -0.9 0.67 s-0.37666 0.62332 -0.47 1.01 s-0.14 0.80666 -0.14 1.26 l0 7.1 c0 0.34666 0.04 0.7 0.12 1.06 s0.22334 0.69 0.43 0.99 s0.48666 0.54666 0.84 0.74 s0.79668 0.29 1.33 0.29 c0.57334 0 1.05 -0.07666 1.43 -0.23 s0.68334 -0.36334 0.91 -0.63 s0.39 -0.58332 0.49 -0.94998 s0.15 -0.76332 0.15 -1.19 l0 -7.42 z M62.800000000000004 20.18 c-0.65334 0 -1.2335 -0.086738 -1.7401 -0.26008 s-0.93332 -0.45 -1.28 -0.83 s-0.60332 -0.87666 -0.76998 -1.49 s-0.23666 -1.3533 -0.21 -2.22 l1.2 0 c0 0.42666 0.02 0.87 0.06 1.33 s0.14666 0.88 0.32 1.26 s0.43668 0.69 0.79002 0.93 s0.84334 0.36 1.47 0.36 c0.53334 0 0.98668 -0.08 1.36 -0.24 s0.67668 -0.37334 0.91002 -0.64 s0.39668 -0.58 0.49002 -0.94 s0.14 -0.73334 0.14 -1.12 c0 -0.45334 -0.08334 -0.85 -0.25 -1.19 s-0.38666 -0.64334 -0.66 -0.91 s-0.59334 -0.50332 -0.96 -0.70998 s-0.75 -0.39 -1.15 -0.55 c-0.64 -0.25334 -1.2 -0.50334 -1.68 -0.75 s-0.87334 -0.52332 -1.18 -0.82998 s-0.53666 -0.66332 -0.69 -1.07 s-0.23 -0.90332 -0.23 -1.49 c0 -1.3333 0.35 -2.3266 1.05 -2.98 s1.7033 -0.98 3.01 -0.98 c1.1333 0 2.03 0.33 2.69 0.99 s0.99 1.65 0.99 2.97 l0 1.1 l-1.12 0 l0 -1.2 c0 -0.41334 -0.05 -0.79668 -0.15 -1.15 s-0.25666 -0.66334 -0.47 -0.93 s-0.48334 -0.47666 -0.81 -0.63 s-0.71666 -0.23 -1.17 -0.23 c-1.0667 0 -1.83 0.28 -2.29 0.84 s-0.67 1.3133 -0.63 2.26 c0.01334 0.41334 0.09 0.76668 0.23 1.06 s0.32666 0.55 0.56 0.77 s0.51334 0.41666 0.84 0.59 s0.69 0.34668 1.09 0.52002 c0.46666 0.2 0.93 0.41334 1.39 0.64 s0.89 0.50666 1.29 0.84 c0.4 0.34666 0.73 0.75 0.99 1.21 s0.39 1.03 0.39 1.71 c0 1.32 -0.33666 2.31 -1.01 2.97 s-1.61 0.99 -2.81 0.99 z M75.3 20 l-1.1 -4.42 l-4.88 0 l-1.1 4.42 l-1 0 l4.14 -15 l0.86 0 l4.12 15 l-1.04 0 z M71.82 5.9399999999999995 l-2.26 8.68 l4.38 0 z M86.56 20 l0 -12.72 l-3.62 8.66 l-1.12 -0.02 l-3.54 -8.66 l0 12.74 l-0.98 0 l0 -15 l1.04 0 l4.06 9.76 l4.08 -9.76 l1.06 0 l0 15 l-0.98 0 z M89.52 20 l0 -15 l7.36 0 l0 1.16 l-6.32 0 l0 5.7 l6.26 0 l0 0.92 l-6.26 0 l0 6.06 l6.46 0 l0 1.16 l-7.5 0 z M105.12 20 l-5.8 -12.88 l0 12.88 l-1.1 0 l0 -15 l1.18 0 l5.8 12.3 l0.14 -12.3 l1.08 0 l0 15 l-1.3 0 z M112.10000000000001 6.1 l0 13.9 l-1.16 0 l0 -13.9 l-3.26 0 l0 -1.1 l7.68 0 l0 1.1 l-3.26 0 z M116.46000000000001 20 l0 -15 l7.36 0 l0 1.16 l-6.32 0 l0 5.7 l6.26 0 l0 0.92 l-6.26 0 l0 6.06 l6.46 0 l0 1.16 l-7.5 0 z M125.36000000000001 20 l0 -1.54 l1.58 0 l0 1.54 l-1.58 0 z M128.28 20 l0 -15 l1.28 0 l0 15 l-1.28 0 z M135.44 6.1 l0 13.9 l-1.16 0 l0 -13.9 l-3.26 0 l0 -1.1 l7.68 0 l0 1.1 l-3.26 0 z" />
  </g>
  <g
     fill="#ffffc2"
     transform="matrix(2.5714285714285716,0,0,2.5714285714285716,113.58285699571881,0.8571428571428559)"
     featurekey="nameLeftFeature-0"
     id="SvgjsG1603">
    <path
       id="path167"
       d="M0.94 19.5 l4.66 -14 l1.04 0 l-3.04 9.26 l3.44 0 l0.36 1 l-4.14 0 l-1.26 3.74 l-1.06 0 z M10.76 19.5 l-3.6 -10.8 l-1.86 5.56 l-1.06 0 l2.96 -8.76 l4.6 14 l-1.04 0 z M9.14 19.5 l-0.74 -2.24 l-3.76 0 l-0.7 -1 l4.16 0 l-1.46 -4.46 l0.52 -1.54 l3.08 9.24 l-1.1 0 z M3.56 19.5 l-1.06 0 l1.06 -3 l0.64 1 z M23.740000000000002 6.5 l-5 0 l0 13 l-1 0 l0 -13 l-3.5 0 l0 -1 l9.5 0 l0 1 z M17.240000000000002 8 l-3 0 l0 -1 l3 0 l0 1 z M23.740000000000002 8 l-3.16 0 l-0.98 -1 l4.14 0 l0 1 z M20.240000000000002 19.5 l-1 0 l0 -12.14 l1 1.04 l0 11.1 z" />
  </g>
  <g
     fill="#ffffc2"
     transform="matrix(2.319587560449554,0,0,2.319587560449554,182.3608248791009,4.005155494380572)"
     featurekey="nameRightFeature-0"
     id="SvgjsG1604">
    <path
       id="path170"
       d="M5.5 14.5 l0 2 l5 0 l0 3.5 l-8.5 0 l0 -15 l8.5 0 l0 3.5 l-5 0 l0 2.5 l4 0 l0 3.5 l-4 0 z M2.5 5.5 l0 12.5 l7.5 0 l0 -1 l-6.5 0 l0 -4.5 l5.5 0 l0 -1 l-5.5 0 l0 -5 l6.5 0 l0 -1 l-7.5 0 z M10 7 l-5.66 0 l1.06 1 l4.6 0 l0 -1 z M4 11 l1 0 l0 -2.66 l-1 -0.98 l0 3.64 z M9 13 l-4.66 0 l1.06 1 l3.6 0 l0 -1 z M4 16.5 l1 0 l0 -2.16 l-1 -0.98 l0 3.14 z M10 18.5 l-7.5 0 l0 1 l7.5 0 l0 -1 z M20 10.26 c0 -1.2 -0.6 -2 -1.5 -2 s-1.5 0.8 -1.5 2 l0 4.5 c0 1.2 0.6 1.98 1.5 1.98 s1.5 -0.78 1.5 -1.98 l0 -0.5 l3.5 0 l0 0.5 c0 3.3 -2 5.5 -5 5.5 s-5 -2.2 -5 -5.5 l0 -4.5 c0 -3.3 2 -5.52 5 -5.52 s5 2.22 5 5.52 l0 0.48 l-3.5 0 l0 -0.48 z M14 14.76 c0 3 1.8 4.98 4.5 4.98 c1.26 0 2.3 -0.44 3.1 -1.2 l-0.76 -0.74 c-0.6 0.6 -1.38 0.96 -2.34 0.96 c-2.1 0 -3.5 -1.6 -3.5 -4 l0 -4.5 c0 -2.4 1.4 -4.02 3.5 -4.02 s3.5 1.62 3.5 4.02 l1 0 c0 -3 -1.8 -5 -4.5 -5 s-4.5 2 -4.5 5 l0 4.5 z M18.5 7.74 c1.2 0 2 1.02 2 2.52 l1 0 c0 -2.1 -1.2 -3.5 -3 -3.5 c-0.8 0 -1.44 0.24 -2 0.74 l0.74 0.7 c0.36 -0.3 0.76 -0.46 1.26 -0.46 z M18.5 17.259999999999998 c-1.2 0 -2 -1 -2 -2.5 l0 -4.5 c0 -0.66 0.14 -1.2 0.4 -1.66 l-0.7 -0.7 c-0.46 0.6 -0.7 1.4 -0.7 2.36 l0 4.5 c0 2.1 1.2 3.48 3 3.48 s3 -1.38 3 -3.48 l-1 0 c0 1.5 -0.8 2.5 -2 2.5 z M22 14.76 c0 1.08 -0.3 1.98 -0.8 2.7 l0.74 0.7 c0.66 -0.86 1.06 -2.02 1.06 -3.4 l-1 0 z M31.5 4.74 c3 0 5 2.22 5 5.52 l0 4.5 c0 3.3 -2 5.5 -5 5.5 s-5 -2.2 -5 -5.5 l0 -4.5 c0 -3.3 2 -5.52 5 -5.52 z M36 10.26 c0 -3 -1.8 -5 -4.5 -5 s-4.5 2 -4.5 5 l0 4.5 c0 3 1.8 4.98 4.5 4.98 c1.2 0 2.24 -0.38 3 -1.14 l-0.7 -0.7 c-0.6 0.56 -1.4 0.86 -2.3 0.86 c-2.1 0 -3.5 -1.6 -3.5 -4 l0 -4.5 c0 -2.4 1.4 -4.02 3.5 -4.02 s3.5 1.62 3.5 4.02 l0 4.5 c0 1.14 -0.3 2.1 -0.86 2.8 l0.76 0.68 c0.7 -0.9 1.1 -2.1 1.1 -3.48 l0 -4.5 z M29.1 7.960000000000001 c-0.4 0.6 -0.6 1.4 -0.6 2.3 l0 4.5 c0 2.1 1.2 3.48 3 3.48 s3 -1.38 3 -3.48 l0 -4.5 c0 -2.1 -1.2 -3.5 -3 -3.5 c-0.84 0 -1.56 0.3 -2.04 0.84 l0.74 0.7 c0.3 -0.34 0.76 -0.56 1.3 -0.56 c1.2 0 2 1.02 2 2.52 l0 4.5 c0 1.5 -0.8 2.5 -2 2.5 s-2 -1 -2 -2.5 l0 -4.5 c0 -0.6 0.14 -1.16 0.34 -1.56 z M30 14.76 c0 1.2 0.6 1.98 1.5 1.98 s1.5 -0.78 1.5 -1.98 l0 -4.5 c0 -1.2 -0.6 -2 -1.5 -2 s-1.5 0.8 -1.5 2 l0 4.5 z" />
  </g>
</svg>
